<svg width="30" height="14" viewBox="0 0 30 14" fill="none" xmlns="http://www.w3.org/2000/svg">
<path d="M29.6991 8.08378C29.5406 8.21735 29.3472 8.28245 29.1551 8.28245C28.9144 8.28245 28.6751 8.18016 28.5079 7.98149L26.2921 5.34953C25.326 6.2279 24.1065 7.10205 22.5949 7.81959L23.859 10.8821C24.0372 11.3137 23.8318 11.808 23.4002 11.9862C23.2945 12.0297 23.1853 12.0504 23.0779 12.0504C22.7459 12.0504 22.4307 11.8534 22.2961 11.5273L21.0314 8.46337C19.4858 9.00464 17.6874 9.37155 15.6079 9.45102V12.724C15.6079 13.1909 15.2293 13.5694 14.7625 13.5694C14.2956 13.5694 13.9171 13.1909 13.9171 12.724V9.45102C12.0215 9.37852 10.3623 9.0653 8.91247 8.60054L7.70438 11.5273C7.56975 11.8534 7.25484 12.0504 6.92259 12.0504C6.81501 12.0504 6.70596 12.0297 6.60028 11.9862C6.1687 11.808 5.96327 11.3137 6.14144 10.8821L7.32987 8.00283C5.77432 7.31763 4.51318 6.46293 3.50546 5.59047L1.49255 7.98149C1.32537 8.17995 1.08612 8.28245 0.845387 8.28245C0.653057 8.28245 0.459882 8.21714 0.301368 8.08378C-0.0558161 7.78303 -0.101679 7.24979 0.199074 6.8926L2.28807 4.41134C0.774584 2.76576 0.129117 1.32011 0.0688813 1.17998C-0.115417 0.751152 0.0828306 0.253841 0.511874 0.0695421C0.940707 -0.115179 1.43802 0.0834914 1.62232 0.512535C1.67959 0.643573 2.33795 2.09577 3.9159 3.6678C3.93767 3.68281 3.96071 3.69507 3.98142 3.7124C4.03701 3.75932 4.08245 3.81321 4.12282 3.86964C5.20959 4.90569 6.69919 5.96963 8.68167 6.72606C8.7083 6.73409 8.73514 6.73917 8.76156 6.74994C8.77213 6.75438 8.78101 6.76114 8.79136 6.766C10.4327 7.37766 12.4038 7.77922 14.7623 7.77922C24.6649 7.77922 27.8709 0.584818 27.902 0.512113C28.0863 0.0832803 28.5838 -0.115813 29.0124 0.0691196C29.4415 0.253418 29.6397 0.750728 29.4554 1.17956C29.3986 1.31187 28.819 2.6083 27.4814 4.13721L29.8008 6.89218C30.1022 7.24979 30.0563 7.78303 29.6991 8.08378Z" fill="black"/>
</svg>
