<?xml version="1.0" ?><!DOCTYPE svg  PUBLIC '-//W3C//DTD SVG 1.1//EN'  'http://www.w3.org/Graphics/SVG/1.1/DTD/svg11.dtd'><svg width="32px" height="32px" viewBox="0 0 32 32" enable-background="new 0 0 32 32" version="1.1" xml:space="preserve" xmlns="http://www.w3.org/2000/svg" xmlns:xlink="http://www.w3.org/1999/xlink"><g id="Energy20"><path d="M25.96,8.73C25.84,8.29,25.42,7.95,24.97,8c-0.46,0.02-0.85,0.34-0.95,0.8c-0.42,2.01-1.8,4.26-3.01,4.26   c-0.4,0-0.82-0.25-1.27-0.74C18.15,10.59,17.22,4.21,17,1.9c-0.04-0.36-0.28-0.68-0.62-0.82c-0.34-0.14-0.73-0.09-1.01,0.15   c-4.99,4.1-5.49,10.56-5.45,13.44c-2.04-1.03-2.95-3.93-2.96-3.96C6.82,10.26,6.41,9.96,5.93,10c-0.47,0.04-0.85,0.38-0.92,0.85   c-1.19,7.61-0.29,13.22,2.65,16.66c2.72,3.17,6.36,3.5099,7.79,3.5099c0.38,0,0.62-0.02,0.62-0.02c3.75-0.25,6.6-1.7,8.47-4.33   C29.09,20.27,26.09,9.2,25.96,8.73z" fill="#BF4D48"/></g><g id="Energy19"/><g id="Energy18"/><g id="Energy17"/><g id="Energy16"/><g id="Energy15"/><g id="Energy14"/><g id="Energy13"/><g id="Energy12"/><g id="Energy11"/><g id="Energy10"/><g id="Energy09"/><g id="Energy08"/><g id="Energy07"/><g id="Energy06"/><g id="Energy05"/><g id="Energy04"/><g id="Energy03"/><g id="Energy02"/><g id="Energy01"/></svg>