<svg width="30" height="30" viewBox="0 0 30 30" fill="none" xmlns="http://www.w3.org/2000/svg">
<g clip-path="url(#clip0_47_7)">
<path d="M29.8894 14.645C29.6531 14.3013 23.9755 6.24988 15.0004 6.24988C7.29903 6.24988 0.436418 14.255 0.147663 14.5963C-0.0485701 14.8288 -0.0485701 15.17 0.147663 15.4038C0.436418 15.745 7.29903 23.7502 15.0004 23.7502C22.7018 23.7502 29.5644 15.745 29.8531 15.4038C30.0344 15.1888 30.0506 14.8775 29.8894 14.645ZM15.0004 22.5002C8.82659 22.5002 2.95646 16.6126 1.46522 15.0001C2.954 13.3863 8.81786 7.49994 15.0004 7.49994C22.2243 7.49994 27.3231 13.3788 28.5681 14.9663C27.1306 16.5276 21.2267 22.5002 15.0004 22.5002Z" fill="black"/>
<path d="M15.0001 9.99988C12.2425 9.99988 10 12.2424 10 14.9999C10 17.7575 12.2425 20 15.0001 20C17.7576 20 20.0001 17.7575 20.0001 14.9999C20.0001 12.2424 17.7576 9.99988 15.0001 9.99988ZM15.0001 18.7501C12.9326 18.7501 11.25 17.0675 11.25 15C11.25 12.9325 12.9326 11.2499 15.0001 11.2499C17.0676 11.2499 18.7501 12.9325 18.7501 15C18.7501 17.0675 17.0676 18.7501 15.0001 18.7501Z" fill="black"/>
</g>
<defs>
<clipPath id="clip0_47_7">
<rect width="30" height="30" fill="white"/>
</clipPath>
</defs>
</svg>
